<svg xmlns="http://www.w3.org/2000/svg" viewBox="0 0 198.43 198.43"><defs><style>.cls-1{fill:#fb0}</style></defs><g id="Слой_7" data-name="Слой 7"><path class="cls-1" d="M155.24 159.8H150V83a6.49 6.49 0 00-6.49-6.48h-11.85a6.49 6.49 0 00-6.49 6.48v76.8h-13.42v-42a6.48 6.48 0 00-6.48-6.48H93.45a6.49 6.49 0 00-6.45 6.49v42H73.54v-21.76a6.49 6.49 0 00-6.48-6.48H55.24a6.49 6.49 0 00-6.49 6.48v21.75h-5.57a2.41 2.41 0 000 4.82h112.06a2.41 2.41 0 100-4.82zm-86.53 0H53.58v-21.75a1.66 1.66 0 011.66-1.66h11.81a1.66 1.66 0 011.66 1.66v21.75zm38.21 0H91.79v-42a1.66 1.66 0 011.66-1.66h11.81a1.66 1.66 0 011.66 1.66zm38.21 0H130V83a1.66 1.66 0 011.66-1.66h11.81a1.66 1.66 0 011.66 1.66v76.8zM150 43.71a2.41 2.41 0 00-.7-1.82 2.35 2.35 0 00-1.83-.7h-14.7a2.41 2.41 0 100 4.82h9l-23.88 23.83-9-9a2.4 2.4 0 00-3.41 0l-43.33 43.35a2.41 2.41 0 103.41 3.41L107.2 66l9 9a2.41 2.41 0 003.41 0l25.54-25.54v8.15a2.42 2.42 0 004.83 0V43.83s.02-.08.02-.12z"/><circle class="cls-1" cx="55.73" cy="114.31" r="2.41"/></g></svg>