<svg xmlns="http://www.w3.org/2000/svg" viewBox="0 0 198.43 198.43"><path d="M46.18 135a15.92 15.92 0 002.51.51c.41.07.83.13 1.24.21l.5.09.09.49c1.58 8.24 6 11.07 14.87 9.45l.55-.1.24.5c3.08 6.37 7.73 8.5 14.22 6.51l.66-.2.24.64a10.87 10.87 0 007.08 7c3.32 1.08 6.58.48 9.94-1.82l.45-.31.43.34c4.49 3.55 8 4.28 11.87 2.46 4.13-2 6.31-5.38 6.68-10.43v-.71h.71a10.15 10.15 0 007.72-3.09c1.94-1.87 2.91-4.35 3-7.8v-.65l.82-.09c6.31-.55 10-3.86 11.12-10.12l.11-.6h.62c8.48 0 11.74-3.18 12.19-12.36v-.6l.59-.09a4.2 4.2 0 00.59-.14 2.44 2.44 0 013 .83 7.25 7.25 0 008.25 2.66l2.36-.71c1.47-.46 3-.93 4.54-1.28 3.86-.85 6.16-2.81 7.24-6.16v-2.63l-.15-.44c-.14-.42-.28-.84-.41-1.26l-11.9-40.54q-1.77-6.08-3.58-12.13c-1.52-5-5.26-7-10.28-5.58l-.61.18q-3.19.95-6.41 1.86c-3.59 1-5.58 3.2-6.1 6.65a2.31 2.31 0 01-1.57 1.75l-1 .17a35.39 35.39 0 01-5.45.63c-5.79 0-11.57-.12-17.35-.2-5.93-.08-11.86-.16-17.78-.2-1.13 0-3.46 0-4.58.84-3.73 2.88-7.71 2.87-11.45 2.43a9.57 9.57 0 00-1.32 0h-7.3l.22-.91c1-3.93-.31-6.89-4-9.31-1.12-.74-2.2-1.53-3.29-2.31-.85-.62-1.7-1.23-2.56-1.83-4-2.71-8.27-2-11 1.84-10.55 14.83-21.29 30-31.93 45.13-2.74 3.9-2 8.08 2 10.94l1.12.81c1.78 1.29 3.61 2.62 5.49 3.79a8.13 8.13 0 003.68 1.48 18.4 18.4 0 004.1-.59c.65-.14 1.3-.28 2-.4l.59-.1.21.5c.13.33.26.69.4 1.08a18.91 18.91 0 001.18 2.92 4 4 0 01-.42 4.87 10.61 10.61 0 00-1.56 9.63 10.05 10.05 0 006.58 6.5zm3.09-4.25h-.16a5 5 0 01-4-2.07 5.77 5.77 0 01-.77-5.2 9.16 9.16 0 011.28-2.48c1.33-1.85 2.68-3.67 4-5.48l1.06-1.42a8.9 8.9 0 01.8-.93 5.8 5.8 0 017.46-.89 5.61 5.61 0 011.33 7.55 88.59 88.59 0 01-6.48 8.72 9.31 9.31 0 01-4.52 2.15zm16.14 8.9a7.1 7.1 0 01-2.41 1.7 7.2 7.2 0 00-.65.35l-.22.14h-.25c-2.83-.28-4.47-1.16-5.47-2.95a5.1 5.1 0 01.23-5.74c2.63-3.63 5.42-7.35 8.3-11.07A5.14 5.14 0 0171 120.3a5.72 5.72 0 013.89 5.24 4.84 4.84 0 01-.85 2.62l-.08.12c-2.76 3.72-5.58 7.64-8.55 11.32zm14.91 7.46a5.22 5.22 0 01-3.8 1.65 5.79 5.79 0 01-2.66-.67c-2.46-1.25-2.91-3.59-3-5.71v-.15l.05-.14a4.09 4.09 0 00.13-.44 6.31 6.31 0 01.83-2.07l.17-.23a52.9 52.9 0 015-6.37 11 11 0 014.56-2.7 4.55 4.55 0 015.22 2.11 5.62 5.62 0 01.25 6.53 65.48 65.48 0 01-6.75 8.14zM93 155.6a5.59 5.59 0 01-1.23.14 5.77 5.77 0 01-4.81-2.57c-1.21-1.85-1.47-4.8.42-6.63a15.2 15.2 0 001.3-1.52c.33-.42.65-.84 1-1.24A5.54 5.54 0 0196 142.3a5.7 5.7 0 013.46 5.34c-.07 2.86-3.7 7.36-6.46 7.96zM146.27 55c.52-.95 1.69-1.29 3.82-1.91l6.4-1.86a1.86 1.86 0 01.38-.06h.27a2.91 2.91 0 012.74 2.45q1.58 5.39 3.17 10.77l12.23 41.4c.48 1.61.65 2.65.19 3.49s-1.43 1.27-3 1.74c-2.08.61-4.17 1.22-6.25 1.81a6.49 6.49 0 01-1.73.29c-1.38 0-2.11-.81-2.67-2.71l-15.13-51.25c-.58-1.98-.94-3.16-.42-4.16zm-63.2 16.81l.62-1a3.35 3.35 0 011-1.06l1.5-1c3.1-2 6.3-4.06 9.5-6a4.57 4.57 0 012.45-.41h.26l10.56.14c6.49.09 13.19.19 19.79.21 2.91 0 5.82-.15 8.9-.31 1.43-.07 2.9-.15 4.4-.21h.57l13.71 46.65-.74.19a10.75 10.75 0 01-2.63.41 5.76 5.76 0 01-3.5-1.19c-15.08-10.86-30.2-21.54-44.4-31.55-3.91-2.76-8-2.41-11.65 1-.79.74-1.57 1.49-2.35 2.24-1.61 1.53-3.27 3.12-5 4.62a22.73 22.73 0 01-4 2.78 3.58 3.58 0 01-4.53-.68 3.66 3.66 0 01-.62-4.68c2.02-3.42 4.09-6.78 6.16-10.15zm-12.36-6h10.07l-.66 1.41a5.88 5.88 0 01-.35.71q-1.14 1.86-2.3 3.72C76 74.1 74.44 76.55 73 79c-2.15 3.64-1.83 7.8.79 10.62A8.64 8.64 0 0084.5 91.5a20.63 20.63 0 004.28-2.91c1.79-1.59 3.54-3.26 5.22-4.88.84-.81 1.67-1.61 2.51-2.4 2.08-2 3.77-2.1 6-.51q22 15.56 44 31.15c2.25 1.6 3.28 3.53 3 5.74a5.24 5.24 0 01-2.48 4 5.64 5.64 0 01-5 .33 13.82 13.82 0 01-2.62-1.49l-7.24-5.11c-1.66-1.17-3.31-2.35-5-3.51a9.33 9.33 0 00-1.61-1 2.33 2.33 0 00-2.89.89 2.25 2.25 0 00.28 2.87 12.71 12.71 0 001.67 1.34l.22.15 3.89 2.75c1.69 1.19 3.38 2.38 5.06 3.59 2.76 2 3.39 5.19 1.54 7.82a5.5 5.5 0 01-8 1.34c-2-1.37-3.93-2.76-5.88-4.16l-3.15-2.23a10.47 10.47 0 00-1-.68 2.42 2.42 0 00-3.18.61 2.33 2.33 0 00.47 3.25c1.1.87 2.27 1.7 3.41 2.49.88.62 1.76 1.24 2.62 1.88a13.35 13.35 0 012.46 2.28c1.85 2.35 2 5.39.46 7.39a6.26 6.26 0 01-7.72 1.41 35 35 0 01-3.23-2c-.5-.34-1-.68-1.51-1l-.27-.17a8.76 8.76 0 00-1.27-.73 2.27 2.27 0 00-2.88.82 2.25 2.25 0 00.29 2.94 27.34 27.34 0 002.67 2l.87.59c2.82 1.94 3.49 5.06 1.66 7.75a5.4 5.4 0 01-4.47 2.58 6.06 6.06 0 01-3.3-1.06l-2.21-1.43.42-.62a10.66 10.66 0 00-9-16.74H93l-.14-.55c-2.34-9-4.3-10.81-12.31-11.11h-.56l-.13-.55c-.78-3.52-2.21-5.88-4.47-7.45-2.85-2-5.59-2.59-8.36-1.92l-.63.15-.23-.59c-1.81-4.58-4.43-7.41-7.57-8.19-3.45-.85-7.59.71-12 4.49l-.79.69-1-2.5c-.61-1.57-1.21-3.13-1.76-4.69a2 2 0 01.5-1.77Q56.32 84.82 69 66.87a2.37 2.37 0 011.71-1.03zm-34 38.27a6.73 6.73 0 01-1.38 1.34l-.6.5-.38.35-.46-.24c-.28-.16-.54-.29-.77-.4a10.55 10.55 0 01-1.24-.7c-1.46-1-2.9-2-4.35-3.07l-1.21-.86c-2.61-1.85-2.8-2.93-1-5.5l27.31-38.57q1.9-2.7 3.82-5.38c1.41-2 2.74-2.22 4.73-.82s4.17 2.93 6.22 4.43 2.12 2.52.77 4.44q-15.7 22.28-31.44 44.51z" fill="#fb0" data-name="Слой 7"/></svg>