<svg xmlns="http://www.w3.org/2000/svg" viewBox="0 0 198.43 198.43"><defs><style>.cls-1{fill:#fb0}</style></defs><g id="Слой_7" data-name="Слой 7"><path class="cls-1" d="M98.6 40.36a62 62 0 1062 62 62.05 62.05 0 00-62-62zm55.66 62A55.66 55.66 0 1198.6 46.68a55.72 55.72 0 0155.66 55.66z"/><path class="cls-1" d="M101.76 93.44V73.7a3.16 3.16 0 00-6.32 0v19.74a9.24 9.24 0 00-5.5 5.49H76.29a3.17 3.17 0 100 6.33h13.65a9.23 9.23 0 1011.82-11.82zm-.24 8.66a2.93 2.93 0 11-2.92-2.93 2.92 2.92 0 012.92 2.93zM98.6 62.66a3.17 3.17 0 003.16-3.16v-2a3.16 3.16 0 00-6.32 0v2a3.16 3.16 0 003.16 3.16zm0 78.87a3.16 3.16 0 00-3.16 3.16v2a3.16 3.16 0 106.32 0v-2a3.17 3.17 0 00-3.16-3.16zm42.59-36.27h2a3.17 3.17 0 100-6.33h-2a3.17 3.17 0 000 6.33zM56 98.93h-2a3.17 3.17 0 000 6.33h2a3.17 3.17 0 000-6.33zm71.92-30.62l-1.44 1.43a3.17 3.17 0 002.24 5.4 3.12 3.12 0 002.23-.93l1.44-1.43a3.16 3.16 0 10-4.47-4.47zm-59.44 60.75a3.13 3.13 0 00-2.24.92l-1.43 1.44a3.16 3.16 0 004.47 4.47l1.43-1.44a3.16 3.16 0 00-2.23-5.39zM131 130a3.34 3.34 0 00-4.47 0 3.17 3.17 0 000 4.47l1.44 1.44a3.16 3.16 0 004.47-4.47zM69.28 68.31a3.15 3.15 0 00-2.23-.91 3.15 3.15 0 00-2.23 5.38l1.43 1.43a3.16 3.16 0 002.24.93 3.16 3.16 0 002.23-5.4z"/></g></svg>