<svg xmlns="http://www.w3.org/2000/svg" viewBox="0 0 198.43 198.43"><defs><style>.cls-1{fill:#fb0}</style></defs><g id="Слой_7" data-name="Слой 7"><path class="cls-1" d="M142.61 74.93a2.37 2.37 0 002.39-2.37V46.84a7.1 7.1 0 00-7.09-7.09H51.8a7.1 7.1 0 00-7.09 7.09v106.89a7.1 7.1 0 007.09 7.09h86.08a7.1 7.1 0 007.09-7.09v-17.42a2.37 2.37 0 10-4.73 0v17.42a2.36 2.36 0 01-2.36 2.36H51.8a2.36 2.36 0 01-2.36-2.36V46.84a2.36 2.36 0 012.36-2.36h86.08a2.36 2.36 0 012.36 2.36v25.72a2.37 2.37 0 002.37 2.37z"/><path class="cls-1" d="M94.84 52.52a21.75 21.75 0 00-14.93 37.57l.26.23a21.7 21.7 0 0029.34 0 1.84 1.84 0 00.25-.23 21.75 21.75 0 00-14.92-37.57zm0 38.78a16.92 16.92 0 01-10.29-3.47 11.82 11.82 0 0120.57 0 16.89 16.89 0 01-10.28 3.47zm-3.78-18v-1.51a3.78 3.78 0 117.56 0v1.54a3.78 3.78 0 11-7.56 0zm17.48 11a16.33 16.33 0 00-7-5.84 8.43 8.43 0 001.78-5.2v-1.47a8.51 8.51 0 10-17 0v1.54a8.48 8.48 0 001.77 5.2 16.36 16.36 0 00-7 5.84 17 17 0 1127.4 0zm-.93 59.03H94.84a2.36 2.36 0 100 4.72h12.77a2.36 2.36 0 100-4.72zm0-13.25H74a2.37 2.37 0 100 4.73h33.58a2.37 2.37 0 000-4.73zm0-13.24H74a2.37 2.37 0 100 4.73h33.58a2.37 2.37 0 000-4.73zM65.6 104.29a2.37 2.37 0 10.69 1.67 2.38 2.38 0 00-.69-1.67zm0 13.24a2.38 2.38 0 10.69 1.68 2.38 2.38 0 00-.69-1.68zm0 13.25a2.36 2.36 0 10-3.34 3.34 2.36 2.36 0 003.34-3.34zm42.01-27.18H74a2.37 2.37 0 100 4.73h33.58a2.37 2.37 0 000-4.73zm53.2-33.03a9.93 9.93 0 00-13.56 3.63l-29.76 51.55a2.27 2.27 0 00-.3.92l-2.1 18.76a2.37 2.37 0 002.35 2.63 2.31 2.31 0 001.4-.47l15.21-11.19a2.32 2.32 0 00.64-.72l29.76-51.55a9.93 9.93 0 00-3.64-13.56zm-40.42 70l1.1-9.8 6.84 3.95zm11.39-9.32l-9-5.2 23.87-41.35 9 5.2zm28.57-49.49l-2.33 4-9-5.21 2.33-4a5.2 5.2 0 119 5.2z"/></g></svg>